<svg xmlns="http://www.w3.org/2000/svg" viewBox="0 0 120 120" role="img" aria-label="Songtales emblem">
  <circle cx="60" cy="60" r="58" fill="#f2e7da" stroke="#8b3a3a" stroke-width="2.5"/>
  <circle cx="60" cy="60" r="50" fill="none" stroke="#8b3a3a" stroke-width="1" opacity="0.45"/>
  <!-- piano keys along the lower arc -->
  <g fill="#fffdf9" stroke="#2a2420" stroke-width="1.1">
    <rect x="31" y="66" width="8.4" height="24" rx="1.5"/>
    <rect x="39.4" y="66" width="8.4" height="24" rx="1.5"/>
    <rect x="47.8" y="66" width="8.4" height="24" rx="1.5"/>
    <rect x="56.2" y="66" width="8.4" height="24" rx="1.5"/>
    <rect x="64.6" y="66" width="8.4" height="24" rx="1.5"/>
    <rect x="73" y="66" width="8.4" height="24" rx="1.5"/>
    <rect x="81.4" y="66" width="8.4" height="24" rx="1.5"/>
  </g>
  <g fill="#2a2420">
    <rect x="36" y="66" width="5" height="15" rx="1"/>
    <rect x="44.5" y="66" width="5" height="15" rx="1"/>
    <rect x="61" y="66" width="5" height="15" rx="1"/>
    <rect x="69.5" y="66" width="5" height="15" rx="1"/>
    <rect x="78" y="66" width="5" height="15" rx="1"/>
  </g>
  <!-- quill -->
  <path d="M84 22c-14 4-26 14-33 27-3 6-5 12-6 18l7-6c2-9 6-17 12-24 6-7 13-12 20-15z" fill="#8b3a3a"/>
  <path d="M84 22c2 12-1 24-8 33-5 7-13 12-21 14 1-9 4-18 9-26 5-8 12-16 20-21z" fill="#8b3a3a" opacity="0.55"/>
  <path d="M45 61l-6 8" stroke="#2a2420" stroke-width="2.5" stroke-linecap="round" fill="none"/>
</svg>
